<svg xmlns="http://www.w3.org/2000/svg" width="400" height="316" viewBox="0 0 400 316">
  <defs>
    <style>
      .card-bg { fill: #0D1117; stroke: #70a5fd; stroke-width: 1; rx: 10; }
      .title { font: 600 18px 'Segoe UI', Ubuntu, Sans-Serif; fill: #70a5fd; }
      .lang-name { font: 400 13px 'Segoe UI', Ubuntu, Sans-Serif; fill: #a9b1d6; }
      .lang-pct { font: 600 13px 'Segoe UI', Ubuntu, Sans-Serif; fill: #a9b1d6; text-anchor: end; }
    </style>
  </defs>
  <rect class="card-bg" x="0.5" y="0.5" width="399" height="315" rx="10"/>
  <text x="25" y="38" class="title">Most Used Languages</text>
    <rect x="25" y="55" width="175.59370730531222" height="8" rx="2" fill="#3178c6"/>
    <rect x="200.59370730531222" y="55" width="133.55902917302902" height="8" rx="2" fill="#3572A5"/>
    <rect x="334.15273647834124" y="55" width="17.343084465161134" height="8" rx="2" fill="#f1e05a"/>
    <rect x="351.4958209435024" y="55" width="10.8524873422808" height="8" rx="2" fill="#563d7c"/>
    <rect x="362.3483082857832" y="55" width="9.520413083661499" height="8" rx="2" fill="#b07219"/>
    <rect x="371.8687213694447" y="55" width="2.6651530981274614" height="8" rx="2" fill="#384d54"/>
    <rect x="374.53387446757216" y="55" width="0.4661255324278711" height="8" rx="2" fill="#e34c26"/>
    
  
    <g transform="translate(25, 85)">
      <circle cx="6" cy="-4" r="6" fill="#3178c6"/>
      <text x="18" y="0" class="lang-name">TypeScript</text>
      <text x="355" y="0" class="lang-pct">50.2%</text>
    </g>
    <g transform="translate(25, 110)">
      <circle cx="6" cy="-4" r="6" fill="#3572A5"/>
      <text x="18" y="0" class="lang-name">Python</text>
      <text x="355" y="0" class="lang-pct">38.2%</text>
    </g>
    <g transform="translate(25, 135)">
      <circle cx="6" cy="-4" r="6" fill="#f1e05a"/>
      <text x="18" y="0" class="lang-name">JavaScript</text>
      <text x="355" y="0" class="lang-pct">5.0%</text>
    </g>
    <g transform="translate(25, 160)">
      <circle cx="6" cy="-4" r="6" fill="#563d7c"/>
      <text x="18" y="0" class="lang-name">CSS</text>
      <text x="355" y="0" class="lang-pct">3.1%</text>
    </g>
    <g transform="translate(25, 185)">
      <circle cx="6" cy="-4" r="6" fill="#b07219"/>
      <text x="18" y="0" class="lang-name">Java</text>
      <text x="355" y="0" class="lang-pct">2.7%</text>
    </g>
    <g transform="translate(25, 210)">
      <circle cx="6" cy="-4" r="6" fill="#384d54"/>
      <text x="18" y="0" class="lang-name">Dockerfile</text>
      <text x="355" y="0" class="lang-pct">0.8%</text>
    </g>
    <g transform="translate(25, 235)">
      <circle cx="6" cy="-4" r="6" fill="#e34c26"/>
      <text x="18" y="0" class="lang-name">HTML</text>
      <text x="355" y="0" class="lang-pct">0.1%</text>
    </g>
</svg>