<svg xmlns="http://www.w3.org/2000/svg" width="400" height="316" viewBox="0 0 400 316">
  <defs>
    <style>
      .card-bg { fill: #0D1117; stroke: #70a5fd; stroke-width: 1; rx: 10; }
      .title { font: 600 18px 'Segoe UI', Ubuntu, Sans-Serif; fill: #70a5fd; }
      .lang-name { font: 400 13px 'Segoe UI', Ubuntu, Sans-Serif; fill: #a9b1d6; }
      .lang-pct { font: 600 13px 'Segoe UI', Ubuntu, Sans-Serif; fill: #a9b1d6; text-anchor: end; }
    </style>
  </defs>
  <rect class="card-bg" x="0.5" y="0.5" width="399" height="315" rx="10"/>
  <text x="25" y="38" class="title">Most Used Languages</text>
    <rect x="25" y="55" width="267.3350602763978" height="8" rx="2" fill="#3572A5"/>
    <rect x="292.3350602763978" y="55" width="62.886588229839894" height="8" rx="2" fill="#3178c6"/>
    <rect x="355.2216485062377" y="55" width="8.432103755666532" height="8" rx="2" fill="#f1e05a"/>
    <rect x="363.6537522619043" y="55" width="5.232985192042733" height="8" rx="2" fill="#563d7c"/>
    <rect x="368.88673745394703" y="55" width="4.80552332025087" height="8" rx="2" fill="#b07219"/>
    <rect x="373.6922607741979" y="55" width="1.0724577210436417" height="8" rx="2" fill="#384d54"/>
    <rect x="374.76471849524154" y="55" width="0.23528150475851048" height="8" rx="2" fill="#e34c26"/>
    
  
    <g transform="translate(25, 85)">
      <circle cx="6" cy="-4" r="6" fill="#3572A5"/>
      <text x="18" y="0" class="lang-name">Python</text>
      <text x="355" y="0" class="lang-pct">76.4%</text>
    </g>
    <g transform="translate(25, 110)">
      <circle cx="6" cy="-4" r="6" fill="#3178c6"/>
      <text x="18" y="0" class="lang-name">TypeScript</text>
      <text x="355" y="0" class="lang-pct">18.0%</text>
    </g>
    <g transform="translate(25, 135)">
      <circle cx="6" cy="-4" r="6" fill="#f1e05a"/>
      <text x="18" y="0" class="lang-name">JavaScript</text>
      <text x="355" y="0" class="lang-pct">2.4%</text>
    </g>
    <g transform="translate(25, 160)">
      <circle cx="6" cy="-4" r="6" fill="#563d7c"/>
      <text x="18" y="0" class="lang-name">CSS</text>
      <text x="355" y="0" class="lang-pct">1.5%</text>
    </g>
    <g transform="translate(25, 185)">
      <circle cx="6" cy="-4" r="6" fill="#b07219"/>
      <text x="18" y="0" class="lang-name">Java</text>
      <text x="355" y="0" class="lang-pct">1.4%</text>
    </g>
    <g transform="translate(25, 210)">
      <circle cx="6" cy="-4" r="6" fill="#384d54"/>
      <text x="18" y="0" class="lang-name">Dockerfile</text>
      <text x="355" y="0" class="lang-pct">0.3%</text>
    </g>
    <g transform="translate(25, 235)">
      <circle cx="6" cy="-4" r="6" fill="#e34c26"/>
      <text x="18" y="0" class="lang-name">HTML</text>
      <text x="355" y="0" class="lang-pct">0.1%</text>
    </g>
</svg>