<svg xmlns="http://www.w3.org/2000/svg" width="400" height="260" viewBox="0 0 400 260">
  <defs>
    <style>
      .card-bg { fill: #0D1117; stroke: #70a5fd; stroke-width: 1; rx: 10; }
      .title { font: 600 18px 'Segoe UI', Ubuntu, Sans-Serif; fill: #70a5fd; }
      .lang-name { font: 400 13px 'Segoe UI', Ubuntu, Sans-Serif; fill: #a9b1d6; }
      .lang-pct { font: 600 13px 'Segoe UI', Ubuntu, Sans-Serif; fill: #a9b1d6; text-anchor: end; }
    </style>
  </defs>
  <rect class="card-bg" x="0.5" y="0.5" width="399" height="259" rx="10"/>
  <text x="25" y="38" class="title">Most Used Languages</text>
    <rect x="25" y="55" width="158.20000000000002" height="8" rx="2" fill="#3572A5"/>
    <rect x="183.20000000000002" y="55" width="105.35" height="8" rx="2" fill="#3178c6"/>
    <rect x="288.55" y="55" width="43.75" height="8" rx="2" fill="#f1e05a"/>
    <rect x="332.3" y="55" width="27.3" height="8" rx="2" fill="#b07219"/>
    <rect x="359.6" y="55" width="15.400000000000002" height="8" rx="2" fill="#e34c26"/>
    
  
    <g transform="translate(25, 85)">
      <circle cx="6" cy="-4" r="6" fill="#3572A5"/>
      <text x="18" y="0" class="lang-name">Python</text>
      <text x="355" y="0" class="lang-pct">45.2%</text>
    </g>
    <g transform="translate(25, 110)">
      <circle cx="6" cy="-4" r="6" fill="#3178c6"/>
      <text x="18" y="0" class="lang-name">TypeScript</text>
      <text x="355" y="0" class="lang-pct">30.1%</text>
    </g>
    <g transform="translate(25, 135)">
      <circle cx="6" cy="-4" r="6" fill="#f1e05a"/>
      <text x="18" y="0" class="lang-name">JavaScript</text>
      <text x="355" y="0" class="lang-pct">12.5%</text>
    </g>
    <g transform="translate(25, 160)">
      <circle cx="6" cy="-4" r="6" fill="#b07219"/>
      <text x="18" y="0" class="lang-name">Java</text>
      <text x="355" y="0" class="lang-pct">7.8%</text>
    </g>
    <g transform="translate(25, 185)">
      <circle cx="6" cy="-4" r="6" fill="#e34c26"/>
      <text x="18" y="0" class="lang-name">HTML</text>
      <text x="355" y="0" class="lang-pct">4.4%</text>
    </g>
</svg>